<mxfile host="app.diagrams.net" agent="Mozilla/5.0 (Windows NT 10.0; Win64; x64) AppleWebKit/537.36 (KHTML, like Gecko) Chrome/138.0.0.0 Safari/537.36" version="28.2.0">
  <diagram name="Page-1" id="Zh_kNp9XMlcT6k4o31D5">
    <mxGraphModel dx="1186" dy="755" grid="1" gridSize="10" guides="1" tooltips="1" connect="1" arrows="1" fold="1" page="1" pageScale="1" pageWidth="827" pageHeight="1169" math="0" shadow="0">
      <root>
        <mxCell id="0" />
        <mxCell id="1" parent="0" />
        <mxCell id="e0q5KFzdUEQBl5pyx45t-1" value="" style="swimlane;startSize=0;" vertex="1" parent="1">
          <mxGeometry x="240" y="80" width="570" height="840" as="geometry" />
        </mxCell>
        <mxCell id="e0q5KFzdUEQBl5pyx45t-3" value="Passer des tests" style="ellipse;whiteSpace=wrap;html=1;" vertex="1" parent="e0q5KFzdUEQBl5pyx45t-1">
          <mxGeometry x="123" y="110" width="166" height="80" as="geometry" />
        </mxCell>
        <mxCell id="e0q5KFzdUEQBl5pyx45t-5" value="&lt;font style=&quot;font-size: 14px;&quot;&gt;Gerer les pays&lt;/font&gt;" style="ellipse;whiteSpace=wrap;html=1;" vertex="1" parent="e0q5KFzdUEQBl5pyx45t-1">
          <mxGeometry x="120" y="325" width="166" height="80" as="geometry" />
        </mxCell>
        <mxCell id="e0q5KFzdUEQBl5pyx45t-6" value="&lt;font style=&quot;font-size: 14px;&quot;&gt;Gerer les regions&lt;/font&gt;" style="ellipse;whiteSpace=wrap;html=1;" vertex="1" parent="e0q5KFzdUEQBl5pyx45t-1">
          <mxGeometry x="123" y="435" width="160" height="80" as="geometry" />
        </mxCell>
        <mxCell id="e0q5KFzdUEQBl5pyx45t-7" value="&lt;font style=&quot;font-size: 14px;&quot;&gt;Gerer les circonscriptions&lt;/font&gt;" style="ellipse;whiteSpace=wrap;html=1;" vertex="1" parent="e0q5KFzdUEQBl5pyx45t-1">
          <mxGeometry x="120" y="570" width="160" height="80" as="geometry" />
        </mxCell>
        <mxCell id="e0q5KFzdUEQBl5pyx45t-15" value="&lt;font style=&quot;font-size: 14px;&quot;&gt;Gerer &lt;/font&gt;&lt;font style=&quot;font-size: 14px;&quot;&gt;les &lt;/font&gt;&lt;font style=&quot;font-size: 14px;&quot;&gt;utilisateur&lt;/font&gt;" style="ellipse;whiteSpace=wrap;html=1;" vertex="1" parent="e0q5KFzdUEQBl5pyx45t-1">
          <mxGeometry x="120" y="712.5" width="160" height="80" as="geometry" />
        </mxCell>
        <mxCell id="e0q5KFzdUEQBl5pyx45t-18" value="&lt;font style=&quot;font-size: 14px;&quot;&gt;Consulter&lt;/font&gt;" style="ellipse;whiteSpace=wrap;html=1;" vertex="1" parent="e0q5KFzdUEQBl5pyx45t-1">
          <mxGeometry x="123" y="220" width="166" height="80" as="geometry" />
        </mxCell>
        <mxCell id="e0q5KFzdUEQBl5pyx45t-20" value="&lt;font style=&quot;font-size: 14px;&quot;&gt;Se connecter&lt;/font&gt;" style="ellipse;whiteSpace=wrap;html=1;" vertex="1" parent="e0q5KFzdUEQBl5pyx45t-1">
          <mxGeometry x="410" y="370" width="140" height="80" as="geometry" />
        </mxCell>
        <mxCell id="e0q5KFzdUEQBl5pyx45t-22" value="" style="endArrow=block;dashed=1;endFill=0;endSize=12;html=1;rounded=0;exitX=1;exitY=0.5;exitDx=0;exitDy=0;entryX=1;entryY=0;entryDx=0;entryDy=0;" edge="1" parent="e0q5KFzdUEQBl5pyx45t-1" source="e0q5KFzdUEQBl5pyx45t-3" target="e0q5KFzdUEQBl5pyx45t-20">
          <mxGeometry width="160" relative="1" as="geometry">
            <mxPoint x="110" y="370" as="sourcePoint" />
            <mxPoint x="270" y="370" as="targetPoint" />
          </mxGeometry>
        </mxCell>
        <mxCell id="e0q5KFzdUEQBl5pyx45t-23" value="" style="endArrow=block;dashed=1;endFill=0;endSize=12;html=1;rounded=0;exitX=1;exitY=0.5;exitDx=0;exitDy=0;entryX=0.5;entryY=0;entryDx=0;entryDy=0;" edge="1" parent="e0q5KFzdUEQBl5pyx45t-1" source="e0q5KFzdUEQBl5pyx45t-18" target="e0q5KFzdUEQBl5pyx45t-20">
          <mxGeometry width="160" relative="1" as="geometry">
            <mxPoint x="110" y="370" as="sourcePoint" />
            <mxPoint x="270" y="370" as="targetPoint" />
          </mxGeometry>
        </mxCell>
        <mxCell id="e0q5KFzdUEQBl5pyx45t-24" value="" style="endArrow=block;dashed=1;endFill=0;endSize=12;html=1;rounded=0;exitX=1;exitY=0.5;exitDx=0;exitDy=0;entryX=0;entryY=0;entryDx=0;entryDy=0;" edge="1" parent="e0q5KFzdUEQBl5pyx45t-1" source="e0q5KFzdUEQBl5pyx45t-5" target="e0q5KFzdUEQBl5pyx45t-20">
          <mxGeometry width="160" relative="1" as="geometry">
            <mxPoint x="110" y="370" as="sourcePoint" />
            <mxPoint x="270" y="370" as="targetPoint" />
          </mxGeometry>
        </mxCell>
        <mxCell id="e0q5KFzdUEQBl5pyx45t-25" value="" style="endArrow=block;dashed=1;endFill=0;endSize=12;html=1;rounded=0;exitX=1;exitY=0.5;exitDx=0;exitDy=0;entryX=0.021;entryY=0.625;entryDx=0;entryDy=0;entryPerimeter=0;" edge="1" parent="e0q5KFzdUEQBl5pyx45t-1" source="e0q5KFzdUEQBl5pyx45t-6" target="e0q5KFzdUEQBl5pyx45t-20">
          <mxGeometry width="160" relative="1" as="geometry">
            <mxPoint x="110" y="370" as="sourcePoint" />
            <mxPoint x="270" y="370" as="targetPoint" />
          </mxGeometry>
        </mxCell>
        <mxCell id="e0q5KFzdUEQBl5pyx45t-26" value="" style="endArrow=block;dashed=1;endFill=0;endSize=12;html=1;rounded=0;exitX=1;exitY=0.5;exitDx=0;exitDy=0;entryX=0.307;entryY=0.938;entryDx=0;entryDy=0;entryPerimeter=0;" edge="1" parent="e0q5KFzdUEQBl5pyx45t-1" source="e0q5KFzdUEQBl5pyx45t-7" target="e0q5KFzdUEQBl5pyx45t-20">
          <mxGeometry width="160" relative="1" as="geometry">
            <mxPoint x="110" y="370" as="sourcePoint" />
            <mxPoint x="270" y="370" as="targetPoint" />
          </mxGeometry>
        </mxCell>
        <mxCell id="e0q5KFzdUEQBl5pyx45t-27" value="" style="endArrow=block;dashed=1;endFill=0;endSize=12;html=1;rounded=0;exitX=1;exitY=0.5;exitDx=0;exitDy=0;entryX=0.686;entryY=0.963;entryDx=0;entryDy=0;entryPerimeter=0;" edge="1" parent="e0q5KFzdUEQBl5pyx45t-1" source="e0q5KFzdUEQBl5pyx45t-15" target="e0q5KFzdUEQBl5pyx45t-20">
          <mxGeometry width="160" relative="1" as="geometry">
            <mxPoint x="110" y="370" as="sourcePoint" />
            <mxPoint x="270" y="370" as="targetPoint" />
          </mxGeometry>
        </mxCell>
        <mxCell id="e0q5KFzdUEQBl5pyx45t-30" value="&amp;lt;&amp;lt;include&amp;gt;&amp;gt;" style="text;html=1;align=center;verticalAlign=middle;resizable=0;points=[];autosize=1;strokeColor=none;fillColor=none;" vertex="1" parent="e0q5KFzdUEQBl5pyx45t-1">
          <mxGeometry x="271" y="310" width="90" height="30" as="geometry" />
        </mxCell>
        <mxCell id="e0q5KFzdUEQBl5pyx45t-31" value="&amp;lt;&amp;lt;include&amp;gt;&amp;gt;" style="text;html=1;align=center;verticalAlign=middle;resizable=0;points=[];autosize=1;strokeColor=none;fillColor=none;" vertex="1" parent="e0q5KFzdUEQBl5pyx45t-1">
          <mxGeometry x="260" y="405" width="90" height="30" as="geometry" />
        </mxCell>
        <mxCell id="e0q5KFzdUEQBl5pyx45t-33" value="&amp;lt;&amp;lt;include&amp;gt;&amp;gt;" style="text;html=1;align=center;verticalAlign=middle;resizable=0;points=[];autosize=1;strokeColor=none;fillColor=none;" vertex="1" parent="e0q5KFzdUEQBl5pyx45t-1">
          <mxGeometry x="230" y="682.5" width="90" height="30" as="geometry" />
        </mxCell>
        <mxCell id="e0q5KFzdUEQBl5pyx45t-32" value="&amp;lt;&amp;lt;include&amp;gt;&amp;gt;" style="text;html=1;align=center;verticalAlign=middle;resizable=0;points=[];autosize=1;strokeColor=none;fillColor=none;" vertex="1" parent="e0q5KFzdUEQBl5pyx45t-1">
          <mxGeometry x="240" y="530" width="90" height="30" as="geometry" />
        </mxCell>
        <mxCell id="e0q5KFzdUEQBl5pyx45t-28" value="&amp;lt;&amp;lt;include&amp;gt;&amp;gt;" style="text;html=1;align=center;verticalAlign=middle;resizable=0;points=[];autosize=1;strokeColor=none;fillColor=none;" vertex="1" parent="e0q5KFzdUEQBl5pyx45t-1">
          <mxGeometry x="350" y="180" width="90" height="30" as="geometry" />
        </mxCell>
        <mxCell id="e0q5KFzdUEQBl5pyx45t-29" value="&amp;lt;&amp;lt;include&amp;gt;&amp;gt;" style="text;html=1;align=center;verticalAlign=middle;resizable=0;points=[];autosize=1;strokeColor=none;fillColor=none;" vertex="1" parent="e0q5KFzdUEQBl5pyx45t-1">
          <mxGeometry x="277" y="240" width="90" height="30" as="geometry" />
        </mxCell>
        <mxCell id="e0q5KFzdUEQBl5pyx45t-36" value="&lt;font style=&quot;font-size: 18px;&quot;&gt;Application de gestion&amp;nbsp; des regions de l&#39;union du Maghreb arabe&lt;/font&gt;" style="text;html=1;align=center;verticalAlign=middle;resizable=0;points=[];autosize=1;strokeColor=none;fillColor=none;" vertex="1" parent="e0q5KFzdUEQBl5pyx45t-1">
          <mxGeometry x="15" y="10" width="540" height="40" as="geometry" />
        </mxCell>
        <mxCell id="e0q5KFzdUEQBl5pyx45t-2" value="&lt;font style=&quot;font-size: 14px;&quot;&gt;Utilisateur&lt;/font&gt;" style="shape=umlActor;verticalLabelPosition=bottom;verticalAlign=top;html=1;outlineConnect=0;" vertex="1" parent="1">
          <mxGeometry x="110" y="198" width="50" height="80" as="geometry" />
        </mxCell>
        <mxCell id="e0q5KFzdUEQBl5pyx45t-4" value="&lt;font style=&quot;font-size: 14px;&quot;&gt;Administrateur&lt;/font&gt;" style="shape=umlActor;verticalLabelPosition=bottom;verticalAlign=top;html=1;outlineConnect=0;" vertex="1" parent="1">
          <mxGeometry x="120" y="490" width="40" height="80" as="geometry" />
        </mxCell>
        <mxCell id="e0q5KFzdUEQBl5pyx45t-8" value="" style="endArrow=none;html=1;rounded=0;entryX=0;entryY=0.5;entryDx=0;entryDy=0;" edge="1" parent="1" source="e0q5KFzdUEQBl5pyx45t-2" target="e0q5KFzdUEQBl5pyx45t-3">
          <mxGeometry width="50" height="50" relative="1" as="geometry">
            <mxPoint x="160" y="160" as="sourcePoint" />
            <mxPoint x="210" y="120" as="targetPoint" />
          </mxGeometry>
        </mxCell>
        <mxCell id="e0q5KFzdUEQBl5pyx45t-9" value="" style="endArrow=none;html=1;rounded=0;entryX=0;entryY=0.5;entryDx=0;entryDy=0;" edge="1" parent="1" source="e0q5KFzdUEQBl5pyx45t-4" target="e0q5KFzdUEQBl5pyx45t-5">
          <mxGeometry width="50" height="50" relative="1" as="geometry">
            <mxPoint x="390" y="430" as="sourcePoint" />
            <mxPoint x="440" y="380" as="targetPoint" />
          </mxGeometry>
        </mxCell>
        <mxCell id="e0q5KFzdUEQBl5pyx45t-10" value="" style="endArrow=none;html=1;rounded=0;entryX=0;entryY=0.5;entryDx=0;entryDy=0;" edge="1" parent="1" source="e0q5KFzdUEQBl5pyx45t-4" target="e0q5KFzdUEQBl5pyx45t-6">
          <mxGeometry width="50" height="50" relative="1" as="geometry">
            <mxPoint x="160" y="410" as="sourcePoint" />
            <mxPoint x="440" y="380" as="targetPoint" />
          </mxGeometry>
        </mxCell>
        <mxCell id="e0q5KFzdUEQBl5pyx45t-11" value="" style="endArrow=none;html=1;rounded=0;entryX=0;entryY=0.5;entryDx=0;entryDy=0;" edge="1" parent="1" source="e0q5KFzdUEQBl5pyx45t-4" target="e0q5KFzdUEQBl5pyx45t-7">
          <mxGeometry width="50" height="50" relative="1" as="geometry">
            <mxPoint x="160" y="430" as="sourcePoint" />
            <mxPoint x="440" y="380" as="targetPoint" />
          </mxGeometry>
        </mxCell>
        <mxCell id="e0q5KFzdUEQBl5pyx45t-12" value="" style="endArrow=classic;html=1;rounded=0;exitX=0.5;exitY=0;exitDx=0;exitDy=0;exitPerimeter=0;" edge="1" parent="1" source="e0q5KFzdUEQBl5pyx45t-4">
          <mxGeometry width="50" height="50" relative="1" as="geometry">
            <mxPoint x="140" y="310" as="sourcePoint" />
            <mxPoint x="140" y="330" as="targetPoint" />
          </mxGeometry>
        </mxCell>
        <mxCell id="e0q5KFzdUEQBl5pyx45t-13" value="&lt;font style=&quot;font-size: 14px;&quot;&gt;Responsable&lt;/font&gt;" style="shape=umlActor;verticalLabelPosition=bottom;verticalAlign=top;html=1;outlineConnect=0;" vertex="1" parent="1">
          <mxGeometry x="120" y="792.5" width="40" height="85" as="geometry" />
        </mxCell>
        <mxCell id="e0q5KFzdUEQBl5pyx45t-16" value="" style="endArrow=none;html=1;rounded=0;entryX=0;entryY=0.5;entryDx=0;entryDy=0;" edge="1" parent="1" source="e0q5KFzdUEQBl5pyx45t-13" target="e0q5KFzdUEQBl5pyx45t-15">
          <mxGeometry width="50" height="50" relative="1" as="geometry">
            <mxPoint x="160" y="640" as="sourcePoint" />
            <mxPoint x="440" y="380" as="targetPoint" />
          </mxGeometry>
        </mxCell>
        <mxCell id="e0q5KFzdUEQBl5pyx45t-17" value="" style="endArrow=classic;html=1;rounded=0;exitX=0.5;exitY=0;exitDx=0;exitDy=0;exitPerimeter=0;" edge="1" parent="1" source="e0q5KFzdUEQBl5pyx45t-13">
          <mxGeometry width="50" height="50" relative="1" as="geometry">
            <mxPoint x="390" y="430" as="sourcePoint" />
            <mxPoint x="140" y="610" as="targetPoint" />
          </mxGeometry>
        </mxCell>
        <mxCell id="e0q5KFzdUEQBl5pyx45t-19" value="" style="endArrow=none;html=1;rounded=0;entryX=0;entryY=0.5;entryDx=0;entryDy=0;" edge="1" parent="1" target="e0q5KFzdUEQBl5pyx45t-18">
          <mxGeometry width="50" height="50" relative="1" as="geometry">
            <mxPoint x="160" y="240" as="sourcePoint" />
            <mxPoint x="440" y="390" as="targetPoint" />
          </mxGeometry>
        </mxCell>
      </root>
    </mxGraphModel>
  </diagram>
</mxfile>
